M48
METRIC,TZ
T1C0.400
T2C0.500
T3C0.800
T4C0.900
T5C1.000
T6C1.300
%
G90
G05
T1
X59200Y-56000
X59200Y-59600
X59300Y-91200
X59300Y-92400
X60200Y-78000
X62200Y-53500
X63300Y-84500
X63800Y-80300
X65400Y-90300
X65700Y-77100
X67500Y-64000
X68500Y-61300
X68500Y-65900
X68800Y-64200
X69000Y-63000
X69700Y-84100
X71500Y-63800
X71500Y-75900
X72300Y-86600
X72600Y-82400
X72800Y-54500
X72900Y-75800
X73000Y-58100
X73600Y-62200
X73800Y-74100
X74500Y-80500
X74800Y-65200
X75300Y-63200
X75400Y-73400
X75700Y-66900
X76000Y-90200
X76200Y-72400
X76700Y-63900
X76900Y-61300
X78700Y-65900
X79500Y-71600
X79700Y-83000
X80800Y-90800
X81000Y-67200
X82300Y-67200
X83300Y-89300
X83500Y-90800
X84100Y-73100
X84400Y-65900
X106900Y-90400
X110400Y-74200
X114500Y-76400
X116700Y-76300
T2
X68300Y-81400
X68300Y-83300
T3
X65400Y-94700
X68900Y-94700
X102300Y-87200
X105800Y-87200
X106500Y-69700
X109400Y-61500
X110000Y-69700
X112900Y-61500
T4
X60260Y-87800
X62800Y-87800
X67700Y-55500
X70240Y-55500
X114860Y-89700
X117400Y-89700
T5
X53860Y-63140
X53860Y-65680
X53860Y-68220
X53860Y-70760
X53860Y-73300
X53860Y-75840
X53860Y-78380
X53860Y-80920
X53860Y-83460
X53860Y-86000
X56400Y-63140
X56400Y-65680
X56400Y-68220
X56400Y-70760
X56400Y-73300
X56400Y-75840
X56400Y-78380
X56400Y-80920
X56400Y-83460
X56400Y-86000
X69400Y-86000
X69400Y-88540
X74600Y-52600
X77140Y-52600
X79680Y-52600
X102620Y-95300
X105160Y-95300
X107700Y-95300
X110240Y-95300
X121400Y-78380
X121400Y-80920
X121400Y-83460
X121400Y-86000
T6
X109500Y-80900
X114500Y-80900
T5
G00X114900Y-70700
M15
G01X114900Y-68700
M16
G05
G00X118900Y-65000
M15
G01X116900Y-65000
M16
G05
G00X120900Y-70700
M15
G01X120900Y-68700
M16
G05
T0
M30
